<?xml version="1.0" encoding="UTF-8"?>
<svg width="200px" height="310px" viewBox="0 0 200 310" version="1.1" xmlns="http://www.w3.org/2000/svg" xmlns:xlink="http://www.w3.org/1999/xlink">
    <!-- Generator: Sketch 47.1 (45422) - http://www.bohemiancoding.com/sketch -->
    <title>Group 2</title>
    <desc>Created with Sketch.</desc>
    <defs></defs>
    <g id="The-Dairy" stroke="none" stroke-width="1" fill="none" fill-rule="evenodd">
        <g id="noun_1020497_cc" transform="translate(-1053.000000, -753.000000)" fill-rule="nonzero" fill="#6E8429">
            <g id="Group">
                <g id="Group-2" transform="translate(1053.000000, 753.000000)">
                    <path d="M164.444356,176.579505 L167.576819,173.811115 C188.186594,154.938259 200,128.058978 200,100.080308 C200,44.9036942 155.138513,0.0159331834 99.9800987,0 C44.8415857,0.0159331834 0,44.9036942 0,100.080308 C0,128.102795 11.8691291,155.053774 32.8450884,174.245294 C33.4500876,174.735239 34.2580799,175.444266 35.1138354,176.181176 C49.6656583,189.457501 58.410285,205.769097 61.0014329,223.741728 L56.6311097,223.741728 C52.9215093,223.741728 49.9124343,226.7531 49.9124343,230.465532 L49.9124343,252.951237 C49.9124343,270.776486 60.8501831,285.494764 75.1870721,287.346996 L78.271772,290.589399 C79.3902245,302.475554 87.669161,310 99.9920395,310 C112.314918,310 120.585894,302.475554 121.704346,290.589399 L124.761185,287.390813 C138.946824,285.757661 150.087566,270.935818 150.087566,252.951237 L150.087566,230.465532 C150.087566,226.7531 147.078491,223.741728 143.36889,223.741728 L138.970705,223.741728 C141.557873,205.737231 150.270658,189.477417 164.444356,176.579505 Z M155.433052,166.605332 C138.385607,182.12027 128.0847,201.849534 125.417927,223.741728 L105.982328,223.741728 C106.432097,222.83752 106.742557,221.857629 106.742557,220.778156 L106.738577,186.0478 C105.329565,186.70106 103.924534,187.354321 102.47174,187.923932 C101.687629,188.234629 100.855755,188.389978 100.023882,188.389978 C99.1920076,188.389978 98.3521732,188.234629 97.5601019,187.923932 C96.1152683,187.354321 94.706257,186.709027 93.3091864,186.055766 L93.3091864,220.778156 C93.3091864,221.857629 93.6196466,222.841503 94.0694157,223.741728 L74.5661519,223.741728 C71.8993791,201.889367 61.57459,182.12027 44.3321127,166.390235 L43.9181659,166.023771 C42.962904,165.199229 42.0593854,164.422486 41.6494189,164.095856 C23.7143767,147.680694 13.4293902,124.342563 13.4293902,100.084292 C13.4293902,52.3245744 52.2607865,13.4555734 99.984079,13.4396402 C147.731253,13.4555734 186.57061,52.3245744 186.57061,100.084292 C186.57061,124.30273 176.341347,147.565178 158.497851,163.900675 L155.433052,166.605332 Z" id="Shape"></path>
                    <path d="M153.99999,108.15252 C153.99999,73.9183999 132.885528,42.6915186 101.455817,30.4641971 C99.8639332,29.8373584 98.1040614,29.8532277 96.5121774,30.4641971 C65.0944658,42.7153226 43.9920029,73.9422039 44.0000023,108.176324 C44.0000023,140.827478 63.2266018,170.701498 92.2684865,183.996033 L92.260487,158.843139 L70.7860512,137.55046 C68.1542429,134.939955 68.1542429,130.690941 70.7860512,128.080436 C73.4258589,125.46993 77.7015475,125.46993 80.3413552,128.080436 L92.2564873,139.899122 L92.2564873,122.458724 L70.8060498,101.150176 C68.1742415,98.5317364 68.1742415,94.290657 70.8140492,91.6801516 C73.4538569,89.0617115 77.7295455,89.0775809 80.3613538,91.6880862 L92.2524876,103.506772 L92.2444882,72.4108132 C92.2444882,68.7132585 95.268268,65.7139544 98.9999961,65.7139544 C102.727725,65.7060198 105.751504,68.7053238 105.751504,72.4108132 L105.751504,86.7130502 L117.678636,74.8665926 C120.318443,72.2560872 124.594132,72.2481525 127.22594,74.8586579 C129.865748,77.4691633 129.865748,81.7181774 127.23394,84.3286828 L105.759504,105.661035 L105.759504,119.594309 C105.759504,119.673656 105.759504,119.741101 105.759504,119.820447 L105.759504,123.113334 L117.694634,111.274811 C120.334442,108.656371 124.610131,108.648437 127.241939,111.266877 C129.881747,113.877382 129.881747,118.118461 127.249938,120.736901 L105.767503,142.053384 L105.767503,156.018397 C105.767503,156.066005 105.767503,156.109646 105.767503,156.165189 L105.775503,184 C134.797389,170.673727 154.015989,140.811609 153.99999,108.15252 Z" id="Shape"></path>
                </g>
            </g>
        </g>
    </g>
</svg>