<?xml version="1.0" encoding="UTF-8"?>
<svg width="293px" height="292px" viewBox="0 0 293 292" version="1.1" xmlns="http://www.w3.org/2000/svg" xmlns:xlink="http://www.w3.org/1999/xlink">
    <!-- Generator: Sketch 47.1 (45422) - http://www.bohemiancoding.com/sketch -->
    <title>noun_916474_cc</title>
    <desc>Created with Sketch.</desc>
    <defs></defs>
    <g id="The-Dairy" stroke="none" stroke-width="1" fill="none" fill-rule="evenodd">
        <g id="noun_1020497_cc" transform="translate(-1347.000000, -767.000000)" fill="#6E8429">
            <g id="Group">
                <g id="noun_916474_cc" transform="translate(1347.000000, 767.000000)">
                    <g id="Group">
                        <path d="M94.1777344,65.5211313 C94.1739719,65.5211313 91.1272875,91.1465781 93.223,99.8765187 C97.083325,116.690191 116.733922,125.112547 131.968284,120.397194 C134.215437,125.120072 135.958416,130.031075 137.406037,135.039903 L144.884006,127.561934 C143.584062,123.731709 142.152431,119.936287 140.383116,116.227403 C153.019472,106.725209 150.263441,90.028175 139.790522,78.9692469 C128.970512,67.5425344 94.1739719,65.5211313 94.1739719,65.5211313 L94.1777344,65.5211313 Z M186.311953,99.4353656 L140.015331,145.731987 L149.605003,145.863675 C149.605003,145.863675 156.967275,137.885294 160.279216,135.208275 C162.136009,133.707037 164.904269,131.832372 167.811741,129.936072 C168.545428,130.481634 169.244312,131.084575 170.015625,131.497509 C175.544619,134.453894 183.175909,134.212153 188.828125,131.497509 C197.875997,127.150881 207.640625,108.000697 207.640625,108.000697 C200.09305,102.318381 193.235894,99.6281937 186.311953,99.4391281 L186.311953,99.4353656 Z M167.351775,105.094166 C166.179756,105.997166 165.130019,107.052547 164.192216,108.253725 L167.351775,105.094166 Z" id="Shape"></path>
                        <path d="M124.859041,143.214875 C123.073593,143.306254 121.493864,144.400774 120.781064,146.040314 C120.068264,147.679853 120.345335,149.581629 121.496306,150.949634 L129.231066,143.214875 L125.335937,143.214875 C125.176135,143.206715 125.016021,143.206715 124.856219,143.214875 L124.859041,143.214875 Z M142.532444,143.214875 L127.6875,158.058878 L127.6875,218.832659 C127.6875,229.221862 136.109856,237.645159 146.5,237.645159 C156.890144,237.645159 165.3125,229.221862 165.3125,218.832659 L165.3125,152.621125 L167.664062,152.621125 C169.360178,152.645112 170.93782,151.753985 171.792878,150.288973 C172.647936,148.823961 172.647936,147.012039 171.792878,145.547027 C170.93782,144.082015 169.360178,143.190888 167.664062,143.214875 L142.532444,143.214875 Z M150.064028,149.020412 C150.308591,150.597841 150.581372,152.179031 150.778903,153.741409 C151.277434,157.486038 151.183372,162.979287 151.183372,166.087112 L151.183372,173.785188 C151.207359,175.481303 150.316232,177.058945 148.85122,177.914003 C147.386208,178.769061 145.574286,178.769061 144.109274,177.914003 C142.644262,177.058945 141.753135,175.481303 141.777122,173.785188 L141.777122,169.449847 C141.765059,169.255638 141.765059,169.060868 141.777122,168.866659 C141.777122,168.866659 141.673653,161.8543 141.504341,157.585744 L150.064028,149.020412 Z" id="Shape" fill-rule="nonzero"></path>
                        <path d="M146.5,0.11006875 C66.035175,0.11006875 0.704065625,65.4421188 0.703125,145.906944 C0.703125,226.372709 66.035175,291.703819 146.5,291.703819 C226.965766,291.703819 292.296875,226.372709 292.296875,145.906944 C292.296875,65.4421188 226.965766,0.11006875 146.5,0.11006875 Z M146.5,9.51631875 C221.882628,9.51631875 282.890625,70.5252563 282.890625,145.906944 C282.890625,221.289572 221.882628,282.297569 146.5,282.297569 C71.1183125,282.297569 10.109375,221.289572 10.109375,145.906944 C10.1103156,70.5252563 71.1183125,9.51631875 146.5,9.51631875 Z" id="Shape" fill-rule="nonzero"></path>
                        <polygon id="Shape" points="242.950747 42.8059781 43.4178469 242.357691 50.0680656 249.00885 249.601906 49.4750094"></polygon>
                    </g>
                </g>
            </g>
        </g>
    </g>
</svg>